<?xml version="1.0" standalone="no"?>
<!DOCTYPE svg PUBLIC "-//W3C//DTD SVG 20010904//EN"
 "http://www.w3.org/TR/2001/REC-SVG-20010904/DTD/svg10.dtd">
<svg version="1.0" xmlns="http://www.w3.org/2000/svg"
 width="1920.000000pt" height="1080.000000pt" viewBox="0 0 1920.000000 1080.000000"
 preserveAspectRatio="xMidYMid meet">
<metadata>
Created by potrace 1.16, written by Peter Selinger 2001-2019
</metadata>
<g transform="translate(0.000000,1080.000000) scale(0.100000,-0.100000)"
fill="#000000" stroke="none">
<path d="M0 8669 l0 -2131 77 -74 c42 -41 83 -74 90 -74 7 0 21 -19 30 -42
l17 -42 18 42 c10 23 23 42 28 42 6 0 10 -25 10 -55 0 -58 -19 -79 -21 -22
l-1 32 -15 -35 -15 -35 -19 35 -18 35 -1 -32 c0 -17 -6 -34 -12 -36 -16 -7 33
-10 89 -7 28 1 62 -7 100 -25 84 -38 93 -49 93 -112 l0 -54 -32 3 c-29 3 -33
7 -36 36 -2 18 -8 30 -13 27 -13 -9 -11 -61 4 -73 16 -13 147 -14 147 -1 0 5
-9 9 -20 9 -22 0 -26 6 -34 63 -3 28 -1 37 10 37 8 0 14 -4 14 -10 0 -5 11
-10 25 -10 23 0 25 -4 25 -42 0 -25 -7 -49 -17 -60 -9 -10 -13 -21 -9 -26 4
-4 16 4 27 17 14 17 25 22 43 17 14 -3 27 -2 31 3 3 5 -7 11 -22 13 -25 3 -28
7 -28 38 0 31 3 35 25 35 16 0 26 -6 28 -17 3 -14 -3 -18 -23 -18 -17 0 -25
-5 -22 -12 5 -18 46 -18 81 0 19 9 26 10 21 2 -5 -9 -1 -10 13 -6 11 4 23 3
26 -2 3 -6 35 -8 71 -6 55 3 65 1 65 -12 0 -10 6 -14 14 -11 10 4 13 1 9 -9
-3 -9 1 -14 14 -14 10 0 26 -9 36 -20 9 -11 25 -20 34 -20 23 -1 55 -25 45
-34 -4 -4 -2 -7 3 -5 6 1 17 0 25 -3 67 -23 84 -27 89 -23 2 3 -1 5 -7 5 -7 0
-12 5 -12 11 0 5 5 7 10 4 18 -11 10 24 -9 42 -11 10 -22 30 -26 46 -4 15 -13
27 -20 27 -15 0 -25 22 -25 56 0 22 4 24 50 24 28 0 50 5 50 10 0 6 9 10 20
10 11 0 20 -6 20 -12 0 -9 4 -8 10 2 9 13 12 13 24 -3 17 -22 56 -15 56 10 0
12 7 14 33 9 17 -3 55 -2 82 3 28 5 42 9 33 10 -24 1 -23 18 2 26 12 4 20 15
20 28 0 18 2 19 10 7 9 -13 13 -12 28 5 9 12 25 24 35 28 11 4 15 12 11 19 -6
9 -3 9 9 -1 14 -11 21 -11 42 3 28 19 55 21 55 5 0 -8 19 -10 65 -6 44 4 65 3
65 -5 0 -6 11 -8 25 -6 14 3 25 1 25 -4 0 -14 189 -3 233 13 23 9 37 20 37 31
0 15 9 18 45 18 38 0 45 -3 45 -20 0 -15 7 -20 25 -20 14 0 25 5 25 10 0 6 9
10 20 10 11 0 20 5 20 10 0 6 7 10 15 10 19 0 42 40 23 40 -7 1 -2 7 12 14 14
8 27 13 31 11 3 -2 3 9 1 26 -3 23 -1 28 11 24 11 -5 16 5 21 39 4 25 11 46
17 46 5 0 9 9 9 19 0 26 16 35 60 34 27 0 29 1 7 4 -18 3 -27 10 -27 23 0 26
31 35 37 11 6 -23 55 -33 96 -19 28 10 74 7 137 -9 29 -8 35 -14 32 -33 -2
-24 -52 -82 -52 -61 0 8 -5 8 -15 -3 -25 -25 -17 -36 25 -36 30 0 40 -4 40
-16 0 -14 8 -16 46 -10 26 3 82 6 126 6 44 0 77 4 74 8 -10 17 41 35 78 28 32
-6 36 -4 36 14 0 16 6 20 30 20 17 0 30 5 30 10 0 6 9 10 20 10 16 0 20 -7 21
-32 1 -20 3 -25 6 -13 4 22 43 53 43 35 0 -5 11 -10 25 -10 17 0 25 6 25 16 0
15 9 16 83 9 110 -10 168 -11 255 -1 52 7 72 6 72 -3 0 -6 5 -11 10 -11 18 0
11 48 -7 53 -14 3 -12 6 10 15 16 7 27 19 27 31 0 11 5 23 10 26 6 3 10 22 10
41 0 19 5 34 11 34 5 0 8 4 5 8 -3 5 4 32 14 60 11 29 25 96 31 149 6 54 14
102 19 108 4 5 13 26 18 45 l10 35 2 -45 c1 -25 5 -53 9 -64 4 -10 5 24 3 75
-3 94 12 179 33 182 17 3 34 -65 36 -148 2 -66 3 -73 9 -40 l7 40 2 -35 c5
-67 8 -82 19 -89 7 -4 16 -38 21 -77 14 -103 35 -204 43 -204 3 0 9 -26 13
-57 11 -100 12 -103 46 -103 18 0 28 -4 24 -10 -3 -5 -14 -10 -24 -10 -15 0
-17 -6 -12 -27 5 -26 6 -26 9 -5 2 12 11 22 20 23 9 0 40 1 67 2 40 2 49 5 47
18 -1 11 8 18 29 23 18 3 34 4 37 2 2 -3 4 -97 3 -211 0 -209 5 -249 38 -258
9 -3 23 -8 33 -12 13 -5 19 4 32 47 8 29 18 78 21 108 11 105 28 205 36 216 5
6 6 13 4 16 -3 3 -1 17 5 32 8 21 15 26 30 21 16 -5 20 -2 20 19 0 26 15 36
22 14 6 -16 149 -21 146 -5 -5 26 13 65 32 70 11 3 23 13 27 24 3 10 16 27 27
38 13 12 20 29 18 44 -3 16 0 21 8 16 9 -5 11 4 9 31 -4 50 18 109 47 125 14
7 20 17 16 27 -4 11 -1 14 9 10 8 -3 28 3 44 13 49 31 57 33 66 18 7 -11 9
-11 9 4 0 9 5 17 10 17 6 0 10 -9 10 -20 0 -11 7 -20 15 -20 18 0 16 11 19
-125 4 -130 3 -128 16 -120 5 3 10 -1 10 -10 0 -8 6 -18 14 -21 8 -3 11 -15 8
-29 -6 -35 18 -131 29 -114 6 10 9 11 9 2 0 -7 6 -13 14 -13 8 0 16 6 19 13 2
6 9 -3 14 -22 9 -37 33 -54 33 -26 0 15 8 17 56 13 42 -4 57 -1 61 10 4 10 17
12 52 8 32 -4 40 -3 26 3 -19 9 -19 10 3 10 12 1 22 6 22 11 0 6 25 10 55 10
30 0 55 5 55 10 0 6 9 10 19 10 12 0 21 9 25 25 6 22 12 25 47 25 24 0 38 -4
34 -10 -8 -12 36 -30 76 -30 16 0 29 -4 29 -10 0 -5 5 -10 10 -10 6 0 9 6 8
13 -2 7 12 13 37 15 22 2 45 8 52 14 7 6 25 7 40 3 16 -4 51 -9 78 -11 72 -5
86 -9 101 -28 10 -14 21 -17 51 -11 33 5 42 2 61 -20 12 -14 27 -23 33 -19 16
10 95 -16 120 -39 14 -13 36 -21 58 -21 20 0 39 -4 44 -10 5 -8 9 -8 15 0 4 5
22 16 40 23 19 8 31 19 28 26 -2 7 1 12 7 12 33 -1 47 4 47 17 0 26 115 30
131 4 5 -8 14 -9 31 -1 17 7 28 7 44 -4 15 -10 54 -14 124 -14 87 -1 104 2
115 18 9 11 14 13 15 5 0 -16 60 13 60 29 0 6 4 8 9 5 5 -3 11 7 14 22 3 15 1
28 -3 30 -5 2 -7 9 -4 17 3 8 13 11 21 8 11 -4 14 -2 9 5 -4 7 -2 12 3 12 6 0
11 7 11 15 0 9 7 18 16 22 8 3 13 12 10 19 -4 10 5 14 32 15 l37 1 -30 13 -30
14 29 1 c16 0 50 -12 74 -26 38 -22 43 -29 30 -38 -8 -6 -15 -15 -14 -21 1 -5
-18 -19 -41 -30 -23 -11 -45 -26 -48 -33 -2 -7 1 -69 7 -137 9 -100 9 -127 -1
-139 -8 -9 -19 -16 -27 -16 -7 0 -23 -20 -35 -45 -14 -28 -29 -45 -40 -45 -13
0 -21 -13 -29 -42 -6 -24 -31 -110 -55 -193 -74 -256 -83 -320 -91 -689 -5
-185 -4 -202 15 -247 25 -57 27 -99 6 -99 -12 0 -15 -14 -15 -62 0 -35 -4 -69
-9 -76 -9 -15 -112 -65 -119 -58 -2 3 17 30 42 60 l47 54 -32 36 c-34 39 -50
44 -69 21 -16 -19 -110 -65 -133 -65 -10 0 -17 5 -17 11 0 6 -65 79 -144 162
-159 169 -206 221 -206 232 0 4 7 1 16 -6 9 -8 44 -19 77 -26 57 -12 61 -11
78 8 10 12 21 30 24 40 8 23 -48 124 -76 139 -13 7 -19 21 -19 43 0 43 -10 55
-42 55 -28 -1 -67 34 -68 60 0 17 -18 15 -49 -7 -18 -13 -32 -17 -41 -11 -8 5
-26 6 -39 3 -21 -5 -23 -3 -16 13 4 10 9 32 11 48 3 33 23 76 36 76 4 0 8 7 8
15 0 10 10 15 30 15 31 0 42 20 38 67 -2 17 -7 22 -21 17 -26 -8 -47 13 -47
47 0 32 31 86 82 145 18 21 27 34 19 29 -18 -10 -127 -36 -161 -38 -29 -2 -40
-13 -40 -43 0 -12 -11 -26 -25 -34 -14 -8 -28 -24 -31 -37 -4 -13 -12 -23 -19
-23 -7 0 -21 -3 -29 -6 -11 -4 -28 6 -49 28 l-32 34 -84 -10 c-74 -9 -85 -8
-96 7 -7 9 -23 17 -37 17 -13 0 -30 6 -36 12 -18 18 -32 -6 -32 -54 0 -51 1
-53 11 -50 5 1 9 -2 9 -6 0 -11 -22 -32 -33 -32 -11 0 -4 124 8 153 6 14 2 20
-15 24 -15 4 -20 11 -17 24 3 10 -3 25 -12 33 -16 14 -20 14 -52 -9 -19 -14
-42 -36 -51 -48 -15 -19 -15 -25 -2 -44 7 -12 14 -32 14 -44 0 -13 55 -80 148
-182 172 -188 212 -233 235 -266 9 -14 69 -79 134 -145 65 -67 152 -159 192
-206 41 -47 133 -145 205 -217 160 -163 158 -160 146 -168 -16 -10 -51 -85
-45 -95 3 -5 0 -7 -8 -5 -7 3 -22 -4 -32 -15 -18 -20 -18 -21 15 -55 19 -19
38 -35 42 -35 5 0 22 14 40 30 39 37 49 37 76 0 20 -26 29 -30 72 -30 27 0 52
-4 55 -10 3 -5 -3 -10 -15 -10 -84 0 -79 -79 8 -124 16 -8 33 -27 36 -41 3
-13 18 -32 31 -41 17 -11 27 -29 31 -55 6 -35 11 -39 55 -55 27 -10 44 -21 38
-25 -6 -4 -23 0 -38 7 -54 28 -56 23 -51 -129 1 -53 6 -73 21 -88 13 -13 18
-27 14 -40 -5 -15 -2 -19 19 -19 36 0 39 -14 10 -41 -56 -52 -66 -83 -61 -172
22 -366 28 -480 24 -483 -13 -13 -35 12 -45 51 -7 25 -16 45 -20 45 -11 0 -35
-79 -67 -220 -15 -63 -37 -149 -50 -190 -35 -112 -103 -471 -110 -585 -3 -55
-13 -158 -21 -229 -11 -87 -13 -131 -6 -138 20 -20 117 -11 170 16 28 14 63
26 78 26 32 0 114 -45 114 -63 0 -7 4 -6 10 3 5 8 10 49 10 91 0 50 5 82 15
95 13 17 14 7 15 -97 0 -130 -1 -129 77 -129 17 0 33 -5 35 -11 3 -8 241 -13
848 -16 465 -3 924 -4 1020 -3 159 1 454 -20 468 -34 25 -25 -110 -37 -518
-44 -206 -3 -573 -5 -815 -3 -479 4 -1082 -7 -1050 -19 16 -6 12 -8 -18 -12
-20 -2 -42 1 -47 6 -7 7 -10 1 -10 -17 0 -35 -16 -35 -24 -1 -6 22 -9 24 -19
12 -7 -8 -30 -20 -52 -27 -22 -8 -57 -25 -79 -38 -21 -14 -61 -31 -88 -38 -46
-12 -51 -11 -81 11 -89 65 -94 64 -122 -23 -30 -93 -65 -111 -65 -32 0 39 -12
50 -27 26 -4 -7 -34 -35 -66 -62 -36 -30 -65 -64 -74 -88 -12 -29 -20 -37 -34
-34 -37 10 -58 -58 -130 -412 -21 -107 -41 -197 -44 -199 -7 -8 -6 11 5 65 5
26 19 100 31 163 11 63 34 170 49 238 16 68 27 133 24 145 -2 11 0 24 4 27 4
3 16 25 27 49 19 43 19 44 0 57 -10 8 -26 12 -34 10 -54 -16 -192 -2 -230 22
-13 9 -36 28 -51 44 -32 31 -38 32 -142 19 -40 -5 -122 -12 -183 -15 -71 -4
-129 -13 -165 -26 -48 -17 -76 -19 -223 -16 -188 3 -171 10 -151 -61 6 -21 3
-23 -40 -23 -31 0 -46 -4 -46 -13 0 -16 -55 -37 -96 -37 -40 0 -53 -11 -56
-44 -3 -28 -3 -28 -62 -24 -51 4 -59 2 -64 -14 -2 -10 -7 -18 -11 -18 -3 0
-15 -7 -25 -15 -19 -14 -19 -16 -2 -34 32 -35 17 -54 -42 -56 -60 -2 -67 -9
-77 -71 -7 -49 5 -80 35 -89 11 -3 20 -10 20 -15 0 -5 3 -15 6 -24 4 -11 0
-16 -13 -16 -21 0 -95 -37 -105 -54 -5 -6 -8 -7 -8 -1 -1 6 -7 -5 -15 -24 -8
-18 -12 -37 -9 -42 3 -5 1 -9 -4 -9 -5 0 -7 -11 -4 -25 3 -16 0 -25 -8 -25 -7
0 -10 -8 -7 -20 3 -11 1 -23 -4 -26 -5 -3 -9 -1 -9 4 0 14 -56 32 -96 32 -26
0 -35 -5 -46 -30 -7 -16 -20 -30 -29 -30 -8 0 -24 -7 -35 -15 -27 -20 -32 -19
-39 14 -4 17 0 44 9 66 24 58 21 81 -15 95 -40 17 -76 -2 -98 -50 -9 -19 -28
-53 -43 -75 -29 -44 -47 -107 -48 -170 -1 -83 -3 -85 -90 -85 -61 0 -80 4 -92
18 -20 22 -31 59 -30 98 1 19 -7 41 -19 55 -11 12 -17 29 -14 37 3 8 -4 23
-16 33 -26 23 -30 23 -23 5 3 -8 -5 -25 -17 -37 -15 -15 -18 -24 -11 -27 17
-5 15 -52 -2 -52 -7 0 -20 -8 -27 -17 -8 -10 -9 -14 -2 -10 6 4 14 3 18 -3 3
-5 1 -10 -4 -10 -6 0 -11 -10 -11 -23 0 -12 -7 -33 -16 -45 -14 -21 -22 -22
-146 -22 l-130 0 6 32 c20 93 19 109 -8 158 -14 26 -26 56 -26 67 0 13 -13 25
-40 37 -30 13 -40 23 -40 40 0 31 -30 118 -48 139 -8 9 -23 17 -34 17 -28 0
-56 21 -51 39 3 13 -9 19 -54 30 -32 7 -64 18 -70 23 -9 7 -13 7 -13 0 0 -6
-34 -9 -89 -9 -71 2 -87 5 -79 15 8 9 6 16 -8 27 -10 7 -20 9 -22 4 -2 -5 -12
-9 -22 -9 -10 0 -37 -9 -61 -19 -24 -11 -45 -18 -47 -17 -1 2 7 25 20 50 14
30 31 49 45 52 22 6 32 23 16 25 -44 6 -90 5 -100 -3 -7 -5 -18 -6 -24 -2 -7
4 -9 3 -6 -3 9 -14 -48 -34 -70 -26 -26 10 -73 58 -73 75 0 8 -9 23 -20 33
-11 10 -20 31 -20 47 0 16 -7 42 -15 58 -20 38 -60 40 -111 5 -40 -27 -54 -31
-54 -15 0 15 -48 11 -125 -10 -95 -26 -124 -26 -134 3 -5 12 -6 28 -4 35 3 6
0 12 -5 12 -6 0 -14 17 -17 38 -16 100 -36 134 -89 146 -16 4 -48 16 -70 27
-60 29 -138 38 -381 45 -179 5 -237 3 -310 -10 -68 -13 -120 -15 -221 -10
l-132 7 -25 -27 c-20 -21 -33 -26 -71 -26 -26 0 -63 -7 -83 -15 -45 -19 -70
-19 -81 0 -7 13 -24 15 -83 13 l-74 -3 -3 -52 -3 -53 -84 0 -84 0 -3 67 -3 67
-46 14 c-29 9 -60 12 -83 8 l-36 -7 0 -869 0 -870 9600 0 9600 0 0 1610 0
1610 -40 -6 c-31 -5 -41 -3 -46 10 -4 11 -19 16 -49 16 -26 0 -60 10 -89 25
-26 14 -57 25 -69 25 -19 0 -179 64 -232 93 -77 43 -140 68 -159 65 -22 -4
-46 12 -46 32 0 5 -4 10 -10 10 -5 0 -10 -7 -10 -15 0 -19 -16 -19 -23 0 -4 8
-23 21 -44 30 -20 9 -41 21 -45 28 -6 9 -12 9 -26 0 -13 -8 -23 -8 -30 -1 -6
6 -19 5 -40 -6 -21 -11 -38 -13 -59 -7 -17 5 -37 5 -46 -1 -9 -5 -29 -11 -44
-13 -16 -2 -44 -9 -63 -15 -19 -6 -71 -13 -115 -16 -44 -3 -92 -9 -108 -14
-19 -6 -37 -5 -61 5 -22 10 -37 11 -41 5 -3 -6 -30 -10 -59 -10 -35 0 -58 -5
-66 -14 -17 -21 -88 -46 -140 -50 -25 -2 -53 -7 -62 -11 -11 -4 -18 -3 -18 4
0 6 -7 11 -16 11 -35 0 -191 110 -264 187 -103 108 -295 342 -287 349 1 1 47
-14 102 -32 111 -39 159 -40 335 -9 106 19 163 19 198 1 63 -32 383 -145 456
-160 172 -35 430 -12 598 54 120 48 159 74 313 209 202 178 230 200 289 226
31 14 60 33 63 42 10 25 -112 135 -194 177 -38 18 -113 48 -168 67 -99 32
-102 32 -272 30 -100 -1 -197 3 -231 9 -48 10 -77 9 -160 -4 -55 -9 -108 -19
-115 -22 -8 -3 -30 8 -48 24 -19 16 -68 54 -110 85 l-76 56 -6 118 c-7 147
-42 327 -69 361 -160 202 -207 253 -270 293 -27 17 -48 35 -48 40 0 5 17 38
38 72 22 34 51 83 66 110 15 26 34 47 44 48 9 0 12 3 6 5 -14 6 47 134 73 155
17 13 17 13 1 -6 -9 -11 -23 -38 -32 -60 -13 -32 -13 -36 -1 -20 8 11 19 25
24 31 5 7 8 14 5 16 -2 3 7 11 21 18 14 7 25 19 25 27 0 14 23 17 110 13 30
-1 58 -7 62 -14 6 -8 8 -8 8 1 0 12 17 12 38 0 7 -5 12 -3 12 4 0 7 10 1 21
-12 l22 -24 -5 28 c-6 32 2 34 27 7 10 -12 24 -19 31 -16 7 3 15 0 18 -7 3 -9
6 -9 13 0 11 15 158 18 203 4 28 -9 161 -14 318 -12 12 1 25 -6 28 -14 8 -19
21 -19 41 0 20 20 37 14 41 -13 3 -17 9 -21 30 -18 24 2 27 -1 29 -31 2 -24
-1 -33 -12 -33 -8 0 -15 -7 -15 -16 0 -11 5 -14 16 -10 9 3 22 6 30 6 8 0 14
9 14 19 0 14 5 18 20 14 11 -3 20 -13 20 -23 0 -17 9 -21 120 -51 24 -6 24 -7
-5 -9 l-30 -2 35 -9 c19 -5 52 -6 73 -3 21 3 37 2 37 -4 0 -6 15 -6 42 1 31 8
43 7 46 -1 2 -7 25 -12 58 -12 l54 0 0 1541 0 1541 -67 -60 c-155 -137 -353
-234 -599 -297 -101 -25 -106 -16 -9 14 50 15 123 44 164 65 156 79 372 223
471 312 l40 36 0 994 0 994 -9600 0 -9600 0 0 -2131z m1640 2022 l75 -37 3
-204 c1 -113 0 -214 -2 -225 -3 -13 -30 -32 -71 -53 -36 -17 -68 -32 -70 -32
-3 0 -5 127 -5 283 0 207 -3 286 -12 295 -20 20 3 12 82 -27z m-975 -41 l-60
-7 58 -1 58 -2 -3 -61 -3 -62 -195 -113 c-181 -105 -199 -114 -247 -114 l-53
0 0 185 0 185 253 -2 c146 -1 227 -4 192 -8z m625 -435 l0 -85 -85 0 -85 0 0
85 0 85 85 0 85 0 0 -85z m2644 -1595 l-8 -105 -8 90 c-5 50 -6 178 -3 285 3
107 5 300 6 428 0 129 3 241 7 250 10 24 15 -821 6 -948z m-3460 850 c8 0 16
5 18 10 2 7 21 7 57 0 30 -6 62 -8 71 -5 10 3 27 -7 44 -24 l28 -29 -26 -203
c-14 -112 -28 -219 -31 -236 l-6 -33 -159 0 -158 0 -6 28 c-3 15 -17 121 -32
235 l-27 208 21 22 c11 12 22 26 24 32 3 10 12 10 76 -1 24 -4 34 -1 38 11 6
14 9 14 30 0 13 -8 30 -15 38 -15z m14090 -245 c-4 -9 0 -15 10 -15 21 0 21 3
-18 -80 -30 -61 -96 -253 -122 -355 l-8 -30 -3 35 c-10 118 -15 144 -25 127
-14 -25 -46 -146 -50 -187 -5 -52 -23 -38 -26 22 -7 112 114 390 201 462 48
41 48 41 41 21z m-154 -145 c0 -5 -6 -13 -14 -17 -14 -8 -106 -193 -106 -213
0 -5 -20 -52 -45 -104 -49 -104 -75 -224 -75 -354 0 -62 -5 -84 -32 -140 -26
-54 -34 -83 -38 -152 -5 -81 -6 -83 -19 -55 -8 17 -17 71 -20 120 l-6 90 -13
-72 c-6 -39 -12 -87 -12 -105 -1 -23 -3 -28 -9 -18 -20 36 22 302 66 419 39
105 74 214 69 219 -3 2 -22 -9 -43 -25 -51 -40 -97 -63 -126 -63 -79 0 -118
32 -54 44 17 4 50 15 72 25 l40 19 -30 1 c-16 1 -37 6 -45 11 -11 7 5 10 52 9
57 -1 73 2 114 28 40 24 52 39 70 86 12 30 37 88 55 127 29 63 39 75 83 101
55 31 66 34 66 19z m-8707 -299 c35 -8 76 -44 77 -66 0 -15 33 -41 66 -52 33
-11 39 -36 9 -41 -11 -2 -27 -10 -35 -17 -15 -13 -61 -24 -116 -29 -17 -2 -36
-6 -43 -10 -7 -5 -26 -2 -42 4 -28 12 -32 11 -58 -20 -16 -19 -33 -31 -42 -28
-7 3 -22 1 -31 -3 -11 -6 -27 -3 -48 9 -31 17 -32 17 -47 -5 -22 -32 -63 -31
-63 1 0 14 -5 28 -11 32 -14 8 -8 125 8 142 7 8 22 10 38 6 27 -7 85 12 85 27
0 13 34 11 47 -2 12 -12 66 11 80 35 15 26 61 32 126 17z m971 -36 c7 -34 28
-47 41 -24 5 7 15 5 31 -6 25 -16 62 -13 75 6 10 16 69 -11 69 -32 0 -27 30
-112 46 -130 18 -20 19 -60 2 -54 -7 3 -29 6 -48 8 -19 2 -46 10 -60 18 -14 9
-53 17 -90 18 -75 3 -80 5 -80 35 0 13 -7 29 -16 37 -10 8 -13 21 -9 36 4 19
0 25 -20 33 -23 9 -24 12 -14 32 17 33 40 58 54 58 7 0 16 -16 19 -35z m972
-111 c-7 -26 -51 -92 -71 -106 -21 -15 6 -18 81 -7 99 14 175 6 284 -28 l85
-28 -45 -3 c-24 -2 -80 1 -125 7 -44 6 -142 14 -218 17 -102 5 -134 10 -120
17 28 16 34 31 16 41 -12 7 -7 13 28 30 24 12 53 36 64 54 25 38 29 40 21 6z
m-1571 -10 c39 -20 53 -23 72 -15 17 8 26 7 38 -5 8 -9 15 -11 15 -5 0 14 32
19 58 7 12 -5 25 -21 29 -35 3 -14 10 -31 15 -38 13 -16 -30 -27 -100 -24 -29
1 -36 6 -49 39 l-15 39 -36 -19 c-50 -25 -87 -21 -89 12 0 14 -4 35 -8 48 -10
30 9 29 70 -4z m1240 -32 c-8 -47 -20 -59 -185 -186 -69 -53 -134 -103 -145
-112 l-20 -17 20 6 c11 2 29 8 40 13 11 4 -16 -30 -59 -77 -88 -94 -116 -133
-116 -166 0 -18 -5 -22 -22 -20 -18 1 -23 -4 -28 -28 -6 -29 -6 -30 -18 -8
-18 33 -15 56 14 99 21 30 24 42 15 56 -18 29 -13 69 15 105 27 36 99 93 117
93 6 0 -8 -13 -30 -29 -72 -52 -106 -111 -84 -148 9 -15 10 -13 11 17 1 41 18
65 83 114 26 19 54 42 62 49 7 8 58 39 112 70 126 71 189 126 204 178 15 49
23 44 14 -9z m6915 -95 c0 -45 6 -105 35 -352 l6 -50 -24 29 c-29 33 -24 41
-56 -97 -16 -68 -28 -95 -50 -118 -25 -25 -61 -39 -61 -25 0 3 18 34 40 69 22
35 47 86 56 113 9 27 20 54 24 59 4 6 1 48 -8 95 -13 72 -13 100 -3 185 7 55
15 110 18 123 10 40 23 23 23 -31z m-4412 -7 c48 -23 62 -44 55 -82 -3 -18
-14 -30 -34 -37 -24 -8 -29 -16 -29 -41 0 -17 -5 -41 -11 -53 -7 -11 -12 -37
-13 -57 -1 -34 -2 -35 -43 -35 -24 0 -43 1 -43 2 0 1 14 9 30 18 34 18 41 58
13 73 -10 6 -19 29 -23 62 -6 44 -4 54 12 63 22 14 23 33 3 54 -18 17 -12 31
19 43 11 5 21 9 22 9 0 1 19 -8 42 -19z m-4357 -162 c25 -27 30 -29 28 -13 -4
24 9 26 34 5 25 -21 47 -64 47 -93 0 -14 7 -30 15 -37 21 -18 19 -53 -6 -85
-38 -47 -49 -175 -16 -175 7 0 23 -9 37 -20 16 -12 34 -17 50 -13 19 3 35 -3
57 -21 17 -14 36 -26 42 -26 19 0 12 -48 -9 -68 -18 -17 -20 -30 -17 -135 2
-96 -1 -119 -13 -127 -27 -17 -59 -11 -76 15 -32 49 -114 41 -114 -11 0 -23
-3 -25 -22 -19 -55 16 -71 17 -109 0 l-39 -18 20 -22 c26 -28 25 -45 -3 -45
-12 0 -40 -17 -62 -39 -62 -60 -225 -133 -225 -100 0 4 -7 6 -16 2 -14 -5 -16
-1 -12 19 4 21 0 29 -20 37 -20 10 -28 9 -43 -5 -11 -9 -19 -27 -19 -39 0 -50
-86 -70 -109 -26 -10 19 -4 61 9 61 15 0 20 49 9 74 -10 20 -15 23 -30 16 -11
-7 -27 -6 -46 1 -26 10 -31 8 -58 -24 -29 -34 -32 -35 -95 -32 -84 3 -97 10
-104 50 -6 33 -7 33 -41 24 -44 -13 -73 2 -77 38 -2 22 -8 28 -25 26 -15 -2
-28 6 -39 22 -21 32 -38 32 -52 0 -13 -29 -48 -40 -104 -32 -46 6 -64 20 -73
60 -6 22 -4 27 12 27 11 0 25 11 31 24 14 31 65 42 107 25 17 -7 36 -13 44
-15 32 -6 71 -27 71 -38 0 -7 11 -22 25 -34 19 -17 25 -18 25 -7 0 8 5 15 10
15 6 0 10 7 10 15 0 8 9 20 20 27 11 7 20 21 20 31 0 10 4 26 10 36 7 14 5 23
-10 36 -32 29 -25 51 18 59 20 3 52 6 70 6 17 0 32 5 32 10 0 24 31 7 37 -20
5 -28 19 -36 48 -30 39 7 71 8 80 1 17 -15 115 -24 115 -12 0 6 4 10 8 9 11
-4 55 27 96 67 65 62 96 87 113 89 19 3 92 101 92 125 1 7 10 30 20 50 32 60
51 119 51 157 0 39 33 94 56 94 8 0 14 5 14 10 0 6 6 10 13 10 8 0 22 9 32 20
10 11 20 20 21 20 2 0 18 -15 35 -32z m-4471 -164 c8 -9 21 -12 39 -7 24 6 25
5 11 -12 -8 -10 -15 -25 -16 -34 0 -9 -6 -31 -13 -49 -15 -37 -40 -40 -56 -5
-11 27 -52 35 -85 18 -26 -13 -43 -39 -55 -82 -4 -14 -14 -23 -26 -23 -13 0
-19 -7 -19 -23 0 -37 -57 -143 -96 -176 -48 -42 -105 -70 -161 -78 l-46 -6 43
79 c24 43 47 85 53 91 5 8 -4 6 -23 -3 -22 -11 -49 -15 -87 -12 -46 4 -60 10
-91 41 -31 32 -36 43 -39 94 -5 68 16 111 69 143 29 18 51 20 185 20 104 0
153 4 155 11 3 8 11 8 28 -2 14 -8 27 -17 30 -20 12 -15 55 -3 60 16 9 32 118
47 140 19z m8538 -161 c22 -21 44 -50 47 -66 9 -36 17 -40 51 -22 38 20 39 19
39 -10 0 -29 -22 -39 -65 -30 -25 5 -37 1 -66 -24 -41 -36 -61 -38 -115 -11
-48 25 -57 44 -35 69 10 11 16 25 14 33 -5 23 39 86 64 91 13 2 24 5 24 6 1 0
20 -16 42 -36z m562 -35 c34 -17 74 -45 91 -62 30 -30 39 -71 17 -78 -17 -6
17 -39 66 -63 21 -11 40 -26 43 -32 6 -16 42 -17 78 -3 28 11 83 -11 136 -54
15 -11 41 -29 58 -38 26 -14 30 -21 22 -35 -6 -13 -5 -24 5 -37 11 -16 22 -18
65 -13 71 9 139 -8 178 -43 18 -17 38 -30 45 -30 8 0 24 -13 36 -28 22 -27 25
-28 59 -16 25 8 42 9 55 2 12 -7 22 -6 29 1 21 21 94 9 80 -13 -5 -7 0 -3 10
7 13 15 17 16 17 4 0 -8 -7 -20 -15 -27 -8 -7 -15 -19 -15 -27 0 -8 -12 -24
-27 -37 l-27 -23 29 -25 c22 -20 29 -34 31 -69 2 -51 -3 -69 -21 -69 -7 0 -18
-7 -26 -16 -10 -12 -21 -14 -48 -8 -20 4 -61 6 -93 5 -111 -4 -65 30 60 46 32
3 56 12 59 20 3 7 -7 32 -22 55 l-27 41 -58 -6 c-73 -6 -155 15 -192 50 -27
26 -29 26 -62 10 -30 -14 -36 -14 -46 -2 -8 9 -10 28 -6 49 6 31 5 34 -25 40
-17 3 -73 6 -123 6 -50 0 -107 5 -126 11 -19 6 -87 12 -151 13 -90 2 -123 6
-142 19 -16 10 -28 13 -32 7 -3 -6 -15 -10 -26 -10 -29 0 -40 -39 -20 -67 9
-12 21 -23 27 -23 7 0 14 -7 18 -15 3 -9 18 -15 36 -15 33 0 80 -38 80 -64 0
-8 3 -21 6 -30 5 -13 -3 -16 -49 -16 -35 0 -59 -5 -67 -14 -24 -30 -90 -43
-255 -50 -73 -4 -93 -2 -108 12 -10 9 -24 17 -30 18 -7 1 -33 11 -59 22 -56
26 -65 57 -39 128 14 39 22 48 37 45 10 -2 54 -4 97 -5 55 -1 80 -5 86 -15 10
-16 50 -18 96 -7 28 7 29 9 12 21 -15 11 -17 19 -9 48 9 32 7 37 -30 75 -22
23 -43 42 -48 42 -4 0 -10 21 -12 48 -3 26 -8 55 -12 65 -6 12 -4 17 9 17 12
0 15 7 13 27 -4 36 -33 42 -63 13 -17 -16 -24 -18 -27 -8 -3 7 8 21 23 30 31
19 44 63 37 123 -3 31 0 36 27 50 16 8 44 23 60 35 48 32 130 28 205 -12z
m4312 -104 c18 -52 23 -93 11 -95 -5 0 -29 -2 -55 -4 l-48 -4 -2 37 c-5 104 7
134 49 123 21 -6 31 -19 45 -57z m-11305 14 c11 -13 23 -31 26 -40 10 -28 58
-52 106 -54 68 -2 68 -2 75 -27 3 -13 17 -29 31 -35 15 -7 24 -16 21 -20 -2
-4 7 -12 20 -19 14 -7 24 -7 24 -1 0 5 7 2 16 -6 8 -9 22 -16 30 -16 8 0 14
-4 14 -9 0 -6 12 -16 27 -23 15 -7 29 -22 31 -33 2 -11 13 -28 23 -38 10 -10
19 -24 19 -32 0 -21 40 -41 50 -25 5 8 36 14 80 15 39 2 73 5 74 7 1 1 7 15
14 31 9 20 18 27 40 27 25 0 31 -6 42 -40 10 -30 11 -43 2 -52 -18 -18 -83
-38 -125 -38 -35 0 -37 -2 -27 -20 9 -16 8 -22 -5 -26 -8 -3 -15 -12 -15 -18
0 -12 -44 -45 -153 -114 -51 -31 -56 -41 -43 -73 11 -25 -99 -24 -122 1 -20
24 -35 25 -52 5 -19 -23 -43 -18 -98 19 -42 28 -52 31 -64 20 -13 -13 -56 -17
-108 -12 -20 2 -26 -2 -28 -20 -2 -13 -11 -26 -20 -29 -9 -3 -25 -13 -35 -21
-16 -14 -21 -14 -48 2 -18 11 -40 15 -57 12 -34 -7 -40 -3 -82 63 -26 42 -31
57 -23 70 6 9 17 14 25 12 7 -2 21 -6 31 -8 13 -4 16 -1 11 12 -5 12 0 23 17
36 13 10 21 21 17 24 -4 4 -37 8 -73 9 -54 1 -68 -2 -76 -16 -11 -20 -50 -23
-81 -7 -18 10 -24 8 -38 -11 l-18 -23 -23 25 c-13 15 -29 33 -35 40 -7 8 -24
24 -39 36 -30 24 -28 52 3 52 11 0 25 7 32 15 15 18 81 20 98 3 9 -9 12 -4 12
24 0 29 5 38 23 44 12 4 28 15 35 25 7 11 24 19 38 19 16 0 24 6 24 18 0 10
13 33 30 52 16 19 29 39 30 43 1 23 44 66 70 72 17 4 37 13 45 22 11 10 19 12
28 5 14 -12 47 7 47 27 0 6 9 11 19 11 10 0 21 7 25 15 8 22 40 18 63 -7z
m-2757 -103 l0 -85 -85 0 -85 0 0 85 0 85 85 0 85 0 0 -85z m6546 -18 c-4 -35
-7 -107 -7 -161 -1 -96 0 -98 36 -151 29 -42 36 -60 31 -80 -7 -27 -83 -110
-125 -136 l-25 -16 29 -24 c55 -45 87 -80 81 -86 -3 -3 -17 5 -30 18 -13 13
-42 39 -65 57 -22 18 -41 37 -41 42 0 5 24 25 54 44 84 54 94 90 51 176 -22
43 -25 63 -25 148 0 87 14 204 27 225 12 19 15 1 9 -56z m7601 -29 c21 -44
171 -247 240 -326 l38 -43 103 14 c71 10 101 11 97 3 -3 -6 -8 -19 -11 -28 -7
-19 -16 -23 -28 -10 -4 4 -45 7 -90 7 -73 0 -85 3 -111 25 -63 53 -209 217
-236 265 -29 52 -49 135 -32 135 5 0 18 -19 30 -42z m-5346 -404 c18 -19 33
-36 32 -37 -1 -1 0 -12 3 -24 5 -20 8 -21 21 -7 12 11 18 12 29 3 22 -18 16
-37 -16 -54 -28 -14 -32 -14 -49 2 -11 10 -40 24 -65 32 -25 7 -47 16 -47 20
-12 56 7 101 41 101 9 0 32 -16 51 -36z m1299 -69 c18 -9 30 -24 30 -35 0 -11
5 -20 11 -20 26 0 -7 -21 -59 -37 -31 -10 -63 -24 -71 -31 -12 -11 -18 -9 -41
16 -14 16 -33 32 -41 36 -11 4 -11 7 -1 12 7 3 31 21 53 40 45 37 75 42 119
19z m1792 -35 c-2 -17 -17 -41 -32 -53 -43 -37 -188 -109 -195 -97 -3 5 -3 15
0 21 4 5 -25 -6 -64 -25 -88 -45 -110 -46 -103 -8 4 26 3 26 -13 10 -17 -16
-20 -16 -54 2 -52 26 -151 57 -240 75 -42 8 -86 17 -99 20 l-23 6 5 -239 c3
-156 9 -248 17 -265 11 -24 9 -31 -17 -65 -16 -20 -37 -48 -45 -62 -17 -28
-40 -90 -34 -90 6 0 42 30 103 85 l45 40 -5 -40 c-4 -22 -9 -49 -14 -60 -6
-17 -3 -17 22 6 48 42 105 81 110 76 3 -3 -2 -11 -11 -18 -9 -8 -60 -57 -114
-111 -66 -65 -95 -100 -89 -106 6 -6 17 -8 24 -5 8 3 14 2 14 -1 0 -15 -105
-161 -144 -200 -23 -23 -5 -36 19 -16 12 10 15 9 15 -4 0 -26 18 -19 35 14 9
17 43 63 77 103 34 39 63 74 65 76 2 2 6 2 9 -2 3 -3 -15 -47 -42 -97 -34 -64
-45 -93 -37 -101 8 -8 18 -3 36 17 15 16 29 25 33 22 7 -8 -51 -116 -108 -200
-21 -31 -38 -59 -38 -62 0 -3 20 9 44 27 36 26 49 44 66 92 21 62 49 117 50
100 1 -41 -68 -202 -116 -270 -39 -57 -37 -59 20 -26 32 18 60 30 63 27 8 -7
-36 -113 -52 -126 -7 -6 -16 -23 -19 -38 -4 -15 -26 -44 -49 -64 -47 -40 -45
-60 2 -32 43 25 50 10 10 -23 -43 -37 -136 -93 -154 -93 -8 0 -17 -4 -20 -10
-3 -5 2 -10 12 -10 12 0 -2 -19 -45 -60 -65 -63 -71 -67 -89 -49 -15 15 -64
-20 -59 -43 8 -34 -97 -130 -124 -113 -6 4 -6 15 0 30 9 22 8 24 -9 13 -14 -9
-23 -8 -42 5 -13 10 -32 17 -42 17 -18 0 -71 -37 -125 -87 -13 -12 -32 -25
-42 -28 -9 -3 -29 -27 -43 -53 l-27 -47 0 34 c0 22 8 43 23 59 l22 24 -30 -7
c-16 -4 -35 -14 -41 -21 -6 -8 -14 -14 -18 -14 -3 0 -6 176 -6 391 1 215 -1
394 -4 396 -3 3 -33 -9 -69 -25 -116 -55 -228 -75 -353 -62 -48 5 -91 13 -95
17 -4 4 25 9 64 10 86 2 226 32 357 76 l95 32 7 105 c3 58 5 170 2 250 -2 80
0 134 4 120 l8 -25 9 30 c10 33 12 44 14 63 0 7 4 11 9 8 4 -2 68 -7 141 -10
141 -5 157 -2 196 40 16 17 34 24 61 25 22 0 46 3 54 7 16 7 27 62 13 62 -4 1
-28 5 -52 9 -29 6 -54 5 -70 -2 -15 -6 -42 -12 -61 -15 -19 -2 -37 -7 -40 -12
-3 -4 -16 -8 -30 -8 -31 0 -133 -32 -141 -44 -3 -5 -32 -13 -64 -17 l-58 -8 7
132 7 131 -933 -3 c-513 -2 -964 -5 -1002 -7 -61 -3 -71 -7 -92 -32 -13 -16
-23 -34 -24 -41 0 -6 -21 -26 -47 -45 -73 -52 -79 -54 -54 -19 48 67 -2 51
-96 -32 -49 -44 -67 -54 -88 -50 -28 6 -55 37 -55 65 0 10 -19 39 -41 63 -33
36 -43 55 -47 92 -3 27 -12 53 -21 60 -14 11 -13 12 8 13 13 0 39 -11 57 -25
18 -14 35 -25 38 -25 4 0 4 23 2 50 -2 35 0 50 9 50 7 0 12 8 11 17 -1 13 11
19 49 26 27 4 52 10 54 13 3 3 -8 16 -24 30 -26 22 -27 24 -7 19 16 -5 22 -2
22 9 0 8 -4 18 -10 21 -5 3 -10 18 -10 33 0 24 1 25 14 7 13 -18 14 -18 21 5
11 36 106 172 113 163 4 -4 10 -10 14 -13 4 -3 -13 -28 -39 -55 -53 -58 -83
-103 -83 -127 0 -9 10 -29 23 -43 18 -21 31 -26 70 -27 54 -1 62 -12 15 -23
-26 -6 -9 -10 77 -16 279 -21 418 -26 467 -17 39 7 53 6 59 -3 6 -10 20 -11
71 -1 83 16 188 19 268 7 36 -6 154 -9 264 -8 159 1 201 5 215 17 22 20 72 31
80 18 6 -11 394 -30 501 -24 59 3 135 -13 160 -33 8 -7 27 -15 42 -19 30 -7
88 -84 88 -117 0 -28 43 -41 114 -33 34 3 95 7 136 8 41 2 84 7 95 13 12 6 57
18 100 27 44 8 89 18 100 22 33 13 56 40 49 57 -4 12 -1 17 14 17 11 0 22 -3
25 -7 2 -5 2 -1 -1 7 -2 8 -8 53 -13 100 -11 103 -15 127 -40 209 -10 35 -19
74 -19 88 0 29 2 28 120 0 36 -9 103 -24 150 -33 47 -9 103 -22 124 -30 26 -9
43 -10 51 -4 8 7 25 -2 55 -30 25 -23 50 -38 58 -35 8 3 20 1 26 -4 17 -15
127 13 143 36 12 15 15 16 23 4 7 -12 12 -12 34 3 14 9 26 21 26 26 0 6 5 10
11 10 6 0 9 -9 6 -20 -8 -32 12 -23 34 15 25 41 38 45 31 10 l-4 -26 36 22
c21 12 49 37 64 55 29 36 41 30 34 -16z m752 0 c3 -16 4 -42 1 -57 -11 -72
-14 -207 -4 -191 7 13 22 17 60 16 28 0 55 4 62 11 6 6 19 11 29 11 10 0 18 5
18 10 0 17 57 11 112 -11 29 -11 66 -23 82 -26 72 -12 111 -48 81 -73 -60 -50
91 -60 280 -20 28 6 108 10 178 8 127 -2 128 -2 164 26 51 41 115 63 315 106
130 29 188 46 220 66 50 32 261 145 263 141 1 -1 5 -18 9 -38 6 -32 3 -38 -21
-54 -16 -10 -51 -42 -78 -70 -44 -46 -58 -53 -102 -60 -29 -4 -81 -4 -116 0
-54 6 -90 1 -228 -30 -90 -20 -170 -40 -176 -44 -7 -3 -24 -22 -38 -41 -24
-32 -25 -41 -25 -164 0 -71 4 -143 10 -160 5 -17 19 -64 31 -104 17 -55 30
-80 54 -100 18 -15 61 -63 96 -107 34 -44 172 -191 306 -326 222 -224 248
-247 296 -262 60 -19 117 -52 117 -67 0 -6 -21 0 -47 13 -55 28 -91 43 -186
83 -100 41 -148 79 -230 185 -82 105 -105 122 -148 107 -38 -13 -53 -34 -52
-71 2 -25 0 -27 -6 -13 -9 22 -17 13 -31 -32 -22 -72 -114 -312 -151 -397
l-42 -95 18 -68 c26 -94 89 -245 134 -322 43 -71 56 -117 41 -140 -8 -13 -14
-13 -42 -1 -18 7 -51 15 -73 18 -22 2 -45 4 -52 5 -7 1 -15 22 -18 47 -10 69
-13 72 -14 10 -1 -31 -4 -59 -8 -62 -9 -10 -56 62 -49 76 3 7 14 23 23 36 l18
25 -27 -18 -26 -17 -26 44 c-30 51 -35 111 -10 125 12 7 14 14 7 26 -9 16 -11
15 -25 -6 -35 -54 -109 -218 -124 -278 -36 -136 -14 -279 66 -447 46 -98 152
-253 171 -253 5 0 97 -88 205 -195 108 -107 194 -195 191 -195 -34 0 -224 117
-331 205 -31 25 -57 45 -59 45 -16 0 12 -315 69 -780 20 -171 24 -190 39 -190
7 0 19 -13 26 -29 7 -16 17 -27 21 -25 4 3 8 -7 8 -22 0 -26 1 -26 19 -10 19
17 23 15 36 -24 6 -16 25 -66 44 -113 10 -25 9 -28 -16 -38 l-26 -10 21 -15
c12 -8 22 -21 22 -29 0 -7 22 -46 49 -87 58 -86 77 -143 60 -185 l-11 -28 -10
28 c-5 15 -13 25 -18 22 -4 -3 -19 17 -34 44 -14 27 -36 61 -50 75 -13 15 -27
39 -31 54 -4 15 -12 30 -18 34 -6 3 -11 22 -11 42 -1 35 -2 36 -40 36 -32 0
-37 3 -32 17 4 9 10 36 13 59 6 47 -15 81 -43 70 -10 -4 -28 6 -48 27 -27 28
-36 50 -55 138 -39 177 -64 279 -68 275 -13 -13 -52 -196 -58 -271 -16 -220
-99 -898 -120 -975 -2 -8 -9 -34 -15 -57 -10 -40 -12 -42 -35 -31 -30 13 -30
5 -6 131 18 93 44 285 58 431 6 58 6 58 -18 51 -13 -4 -40 -17 -59 -30 -25
-16 -55 -24 -104 -27 -49 -3 -72 -9 -81 -21 -7 -9 -22 -17 -34 -17 -36 0 -19
-22 29 -38 49 -17 42 -25 -30 -37 -37 -6 -43 -5 -33 6 9 11 6 20 -12 41 -13
16 -28 28 -33 28 -14 0 -7 67 15 150 12 41 26 102 32 135 12 64 47 194 86 315
61 189 69 236 66 398 l-2 152 36 83 35 83 -20 58 c-11 33 -29 109 -41 170 -50
264 -148 479 -283 620 -36 38 -66 72 -66 75 0 3 -6 44 -13 91 -12 80 -17 92
-78 180 -69 102 -128 165 -162 176 -31 9 -57 34 -57 54 0 21 72 40 78 21 2 -6
16 -11 32 -11 18 0 35 -9 47 -24 13 -16 40 -29 84 -40 77 -19 158 -25 160 -12
0 5 -16 19 -36 31 -23 12 -46 37 -59 62 -20 40 -24 42 -64 43 -47 0 -47 1 -57
73 -6 43 -4 48 16 55 19 7 20 10 6 15 -11 4 -17 18 -17 36 0 38 -16 80 -32 85
-7 2 -47 9 -88 16 -41 7 -90 16 -108 21 -29 7 -32 6 -21 -7 7 -8 17 -13 23
-11 6 2 20 -5 31 -15 15 -14 17 -21 7 -27 -9 -5 2 -14 32 -26 50 -21 68 -45
34 -45 -17 0 -10 -8 30 -36 29 -20 52 -41 52 -45 0 -5 -13 -9 -29 -9 -21 0
-46 16 -97 64 -86 80 -134 157 -150 243 l-12 65 44 -5 c24 -2 44 -1 44 3 0 8
-25 114 -36 152 -9 29 24 10 51 -31 29 -42 31 -38 10 24 -9 25 -13 49 -10 54
3 5 -1 11 -7 14 -23 8 4 24 87 50 145 46 165 50 183 35 15 -11 15 -11 5 3 -11
13 1 19 95 43 59 15 132 33 162 42 49 13 56 12 66 -1 12 -16 29 -19 83 -17 25
2 32 6 27 17 -6 18 22 34 33 18 3 -6 16 -4 31 4 14 7 19 13 13 13 -7 0 -13 7
-13 15 0 8 7 15 16 15 8 0 12 -4 9 -10 -7 -12 12 -12 40 0 14 6 15 9 5 10 -24
2 20 18 52 19 32 1 34 9 43 186 5 105 10 149 31 230 3 13 -1 10 -11 -7 -16
-29 -28 -38 -19 -14 3 8 -2 13 -13 13 -40 -2 -139 26 -156 44 -10 10 -27 19
-37 19 -11 0 -20 4 -20 9 0 21 -96 39 -185 34 -53 -3 -109 0 -135 7 -25 6 -51
12 -58 12 -8 1 -12 11 -10 27 4 35 -30 51 -109 51 -52 0 -63 -3 -63 -16 0 -22
-29 -43 -58 -44 -13 0 -30 -7 -38 -15 -18 -17 -34 -20 -34 -5 0 6 -7 10 -15
10 -12 0 -14 9 -10 38 2 20 7 78 10 127 3 50 9 107 12 128 7 49 -9 49 -107 -4
-162 -86 -181 -93 -250 -93 -83 -1 -89 16 -23 61 51 35 333 151 369 152 16 1
23 -7 28 -29z m-542 -60 l-23 -19 26 -17 27 -17 -29 -13 c-25 -11 -25 -12 -6
-13 29 -1 53 -11 53 -22 0 -5 -12 -6 -28 -3 -15 3 -43 6 -62 7 -22 2 -34 7
-32 15 3 15 1 15 -77 -3 -35 -9 -67 -13 -70 -9 -11 11 63 64 99 69 19 3 58 16
85 29 56 26 72 24 37 -4z m-11866 -105 c75 -23 137 -74 169 -139 63 -128 1
-246 -129 -246 -63 0 -99 18 -91 44 34 103 -4 174 -112 206 -82 25 -171 -8
-222 -80 l-24 -35 7 30 c22 94 110 193 195 219 61 19 146 20 207 1z m-236
-500 l0 -85 -85 0 -85 0 0 85 0 85 85 0 85 0 0 -85z m12670 -30 c7 -8 35 -22
63 -30 40 -12 58 -13 85 -4 37 12 101 6 112 -11 4 -6 47 -10 106 -10 156 1
159 1 162 -10 2 -5 10 -10 17 -10 23 0 65 -22 59 -31 -3 -5 -16 -9 -29 -9 -14
0 -64 -11 -111 -25 -48 -14 -89 -23 -92 -20 -3 3 0 17 7 31 18 41 34 42 -168
-16 -113 -33 -125 -35 -116 -20 4 6 -10 10 -36 10 -25 0 -50 7 -60 16 -10 9
-34 16 -54 17 -31 1 -39 6 -62 46 -17 29 -22 46 -15 49 7 2 12 10 12 17 0 9
15 15 43 18 23 2 47 4 53 5 6 1 17 -5 24 -13z m4720 -115 l35 -19 -46 5 c-44
6 -46 5 -59 -25 -11 -26 -11 -36 0 -56 17 -32 6 -43 -19 -21 -18 16 -20 16
-41 -11 -41 -53 -100 -152 -100 -169 0 -9 -13 -32 -30 -51 -16 -18 -30 -41
-30 -49 0 -9 -13 -29 -29 -45 -16 -16 -32 -42 -36 -59 -7 -31 -47 -69 -53 -50
-2 6 12 34 30 63 32 48 78 130 150 267 28 54 28 54 4 25 -14 -16 -26 -34 -26
-38 0 -5 -4 -6 -9 -2 -5 3 -13 31 -17 63 -4 31 -12 60 -18 64 -7 5 -6 8 3 8
11 0 10 4 -4 14 -17 12 -18 15 -3 30 9 9 21 16 27 16 6 0 28 9 49 20 21 11 62
22 91 25 30 2 56 7 59 10 10 10 37 4 72 -15z m-1199 -470 c-6 -36 -13 -80 -17
-97 -4 -19 -2 -33 3 -33 5 0 10 6 11 13 0 6 7 29 14 49 12 37 14 37 53 31 22
-3 47 -9 56 -14 9 -4 75 -9 148 -11 72 -1 131 -5 131 -9 0 -13 172 -41 215
-36 32 5 45 3 46 -6 0 -9 2 -9 6 1 2 6 9 12 14 12 6 0 7 -4 4 -10 -9 -14 29
-12 44 3 10 10 11 8 5 -8 -4 -11 -14 -26 -21 -33 -15 -15 -17 -29 -5 -36 5 -3
15 6 22 19 13 24 30 34 30 18 0 -12 -95 -154 -127 -190 -28 -31 -30 -31 -156
-41 -148 -11 -184 -28 -233 -106 -21 -34 -39 -49 -67 -57 -35 -11 -42 -10
-121 30 -55 27 -94 55 -111 78 l-27 35 20 106 c23 123 51 358 57 482 6 123 9
120 13 -10 1 -63 -2 -144 -7 -180z m-4488 -52 c-6 -34 -11 -42 -80 -127 -24
-29 -43 -57 -43 -61 0 -5 33 7 74 26 110 50 115 41 9 -15 -51 -27 -129 -71
-175 -98 -46 -28 -126 -71 -178 -98 -176 -89 -225 -117 -320 -180 -96 -63
-268 -220 -256 -233 4 -3 11 0 16 8 8 13 10 13 10 -1 0 -12 7 -15 23 -12 22 4
23 1 25 -51 1 -41 -2 -56 -12 -56 -16 0 -29 -27 -20 -41 3 -5 -9 -14 -26 -20
-17 -6 -29 -14 -25 -17 3 -3 -2 -16 -11 -30 -9 -13 -12 -22 -6 -18 5 3 0 -20
-11 -50 -20 -55 -53 -96 -116 -142 -17 -13 -31 -27 -31 -32 0 -14 -66 -123
-92 -151 -88 -98 -112 -138 -129 -221 -15 -71 -23 -84 -56 -93 -15 -3 -46 -20
-68 -36 -34 -26 -41 -27 -44 -13 -2 10 19 37 53 68 31 29 56 57 56 64 0 6 12
37 27 68 23 50 25 59 13 78 -9 13 -16 60 -18 124 -3 82 -1 107 12 127 19 28
118 104 193 146 81 45 116 126 73 169 -31 31 -25 45 38 93 31 25 68 57 82 72
14 15 52 45 85 67 47 30 80 66 155 166 73 97 106 133 141 152 65 35 117 80
102 86 -25 11 -12 24 64 69 81 47 109 56 99 30 -10 -27 19 -16 97 34 50 33 75
55 74 67 -2 13 24 31 93 65 52 26 98 48 102 48 4 1 5 -14 1 -31z m-750 -1455
c16 -164 50 -408 68 -486 36 -160 93 -297 155 -373 19 -23 34 -51 34 -62 0
-22 -36 -62 -55 -62 -7 0 -20 -9 -30 -20 -10 -11 -24 -20 -30 -20 -18 0 -53
-103 -65 -195 -11 -82 -36 -165 -49 -165 -4 0 -13 12 -20 28 -17 37 -156 246
-200 301 -19 24 -81 85 -138 137 -100 91 -104 94 -151 94 -54 0 -154 -44 -237
-104 -27 -20 -53 -36 -57 -36 -5 0 -8 24 -8 54 0 52 1 55 38 73 20 11 70 39
111 61 68 39 80 42 147 42 82 0 95 12 39 36 -19 8 -35 16 -35 19 0 14 119 154
207 243 86 88 109 118 150 200 27 53 62 141 79 194 16 54 32 98 35 98 3 0 9
-26 12 -57z m1684 7 c20 -12 44 -42 63 -80 30 -60 80 -134 172 -255 55 -72
115 -185 124 -230 4 -24 -2 -47 -26 -94 -60 -121 -69 -184 -70 -501 -1 -286
-9 -423 -28 -442 -16 -16 -84 -28 -104 -17 -22 12 -24 29 -2 29 23 0 11 24
-14 28 -26 4 -28 19 -6 44 16 17 15 19 -19 33 -20 8 -41 15 -47 15 -14 0 -13
27 3 33 7 4 6 6 -5 6 -19 1 -19 -1 -98 289 -33 123 -65 231 -70 240 -6 9 -16
35 -24 57 -14 44 -42 58 -62 30 -10 -13 -8 -26 6 -68 10 -29 39 -140 65 -247
26 -107 53 -220 61 -250 10 -42 11 -56 1 -62 -9 -5 -13 6 -15 42 -2 28 -5 50
-8 50 -3 0 -13 -9 -22 -20 -16 -20 -17 -19 -18 28 -1 28 -18 94 -39 153 -20
57 -47 142 -60 189 -12 47 -28 98 -34 113 -19 49 -13 108 20 177 65 137 154
435 170 564 13 114 26 166 42 166 7 0 26 -9 44 -20z m-2109 -1006 c13 -8 52
-61 89 -117 81 -125 233 -387 233 -403 0 -6 9 -19 20 -29 31 -28 24 -41 -25
-55 -25 -7 -48 -16 -51 -21 -8 -14 56 -41 82 -35 31 8 31 -9 0 -29 -15 -10
-33 -14 -50 -9 -14 3 -26 2 -26 -3 0 -5 -29 -31 -65 -58 -36 -27 -65 -50 -65
-53 0 -2 9 0 20 3 33 10 23 -13 -30 -75 -27 -32 -50 -61 -50 -64 0 -18 89 59
103 89 16 34 101 94 115 81 3 -4 -19 -33 -51 -64 -31 -31 -73 -79 -91 -106
-19 -26 -50 -61 -70 -78 -20 -16 -36 -38 -36 -48 0 -10 -25 -47 -54 -81 -30
-35 -53 -66 -50 -71 11 -17 100 -7 153 17 31 15 58 22 63 17 18 -18 -44 -130
-87 -158 -34 -22 -44 -10 -16 20 l22 23 -51 5 c-37 4 -58 12 -79 32 -32 31
-36 31 -67 7 -16 -13 -20 -21 -12 -24 9 -3 3 -15 -17 -37 -29 -32 -29 -33 -6
-27 22 6 23 4 19 -38 -3 -24 -17 -67 -32 -94 -14 -28 -26 -55 -26 -60 0 -13
53 3 96 28 37 22 43 18 17 -11 -15 -17 -14 -18 33 -18 136 -2 364 -23 407 -39
16 -6 17 -9 5 -19 -20 -16 -156 -30 -404 -42 -178 -8 -211 -12 -221 -27 -7 -9
-13 -20 -13 -25 0 -4 -4 -8 -8 -8 -4 0 -8 12 -7 28 0 22 -5 27 -25 29 -41 2
-166 22 -184 29 -23 9 -20 33 7 44 28 12 165 30 181 24 7 -3 19 3 28 13 22 26
72 122 66 128 -6 6 -76 -70 -94 -101 -19 -31 -29 -7 -15 33 8 20 29 60 47 89
19 29 34 56 34 59 0 3 -14 -2 -31 -10 -17 -9 -38 -15 -47 -13 -10 2 15 22 65
51 106 61 194 166 229 273 12 38 21 70 20 71 -1 1 -12 0 -23 -3 -12 -4 -39
-31 -60 -61 -20 -30 -39 -51 -40 -46 -6 16 54 138 89 184 49 64 55 77 22 49
-16 -14 -35 -31 -41 -39 -7 -8 -15 -12 -18 -9 -11 10 79 100 124 122 54 28
102 65 83 66 -7 0 -27 -7 -43 -16 -17 -8 -33 -13 -37 -10 -9 10 30 46 106 97
41 27 66 49 57 49 -19 0 -93 36 -118 58 -23 20 -127 24 -120 5 3 -7 -2 -13
-10 -13 -8 0 -17 7 -21 15 -3 8 -15 15 -26 15 -25 0 -189 80 -224 109 -11 9
-20 10 -36 1 -29 -15 -33 2 -28 113 l4 93 43 40 c144 129 260 180 319 138z
m-3880 -556 c33 -143 60 -285 73 -378 12 -92 9 -106 -35 -168 l-24 -33 -6 53
c-3 29 -13 152 -21 273 -8 121 -17 248 -20 283 -3 34 -2 62 3 62 5 0 19 -42
30 -92z m7102 -223 c16 -8 50 -43 76 -77 27 -35 51 -65 55 -68 14 -11 39 -71
34 -80 -14 -22 -39 -6 -120 78 -84 85 -103 116 -91 147 7 19 10 19 46 0z
m-4527 -202 c-15 -6 -17 -33 -3 -33 6 0 10 -18 10 -39 0 -22 4 -42 9 -46 6 -3
13 -26 17 -50 5 -34 2 -51 -10 -70 -9 -14 -13 -24 -9 -23 4 1 26 -16 49 -38
22 -22 114 -96 205 -164 90 -68 228 -176 305 -240 78 -63 162 -130 188 -147
25 -18 46 -37 46 -43 0 -17 -119 70 -395 288 -217 171 -450 356 -465 369 -3 3
-8 46 -11 96 -3 51 -9 102 -13 114 -5 16 -2 23 11 26 24 6 81 7 66 0z m4117
-488 c12 14 70 22 70 9 0 -3 -18 -28 -40 -54 -22 -26 -40 -50 -40 -53 0 -3
-14 -29 -32 -56 -25 -41 -31 -61 -29 -99 1 -34 -10 -76 -39 -152 -23 -58 -59
-153 -82 -213 -23 -59 -43 -106 -44 -104 -3 3 20 93 75 290 45 159 93 303 122
359 10 20 15 39 10 42 -5 3 -11 15 -14 27 -5 19 -4 20 12 5 16 -15 19 -15 31
-1z m627 -69 c-7 -18 60 -26 248 -27 115 0 144 -3 125 -11 -14 -6 -94 -11
-179 -12 -132 -2 -155 -4 -166 -19 -15 -21 -75 -23 -75 -3 0 11 -20 16 -80 22
-80 7 -102 24 -31 24 71 0 131 12 131 26 0 8 7 14 16 14 10 0 14 -6 11 -14z
m782 -26 c172 0 213 -3 203 -12 -12 -12 -86 -15 -332 -11 -30 0 -89 0 -130 -1
-101 -1 -139 16 -55 25 33 3 69 5 80 3 11 -2 117 -4 234 -4z m-2398 -10 c37
-5 79 -14 95 -20 44 -17 12 -38 -81 -51 -95 -14 -555 -4 -622 12 -80 21 -43
44 90 58 114 12 439 13 518 1z m-9457 -992 c19 -73 -8 -153 -59 -176 -24 -11
-27 -10 -36 18 -6 16 -15 30 -19 30 -12 0 -3 74 14 115 14 32 19 35 54 35 33
0 41 -4 46 -22z m6173 -439 c73 -35 98 -118 47 -158 -41 -33 -105 -23 -91 14
10 25 -18 71 -52 85 -40 16 -86 5 -112 -28 l-21 -27 7 25 c17 63 79 110 144
110 19 0 54 -9 78 -21z m1089 5 c76 -36 107 -138 62 -204 -66 -97 -186 -107
-249 -19 -32 45 -34 134 -3 176 43 58 124 78 190 47z m1109 -9 c85 -49 96
-154 25 -225 -49 -49 -101 -60 -163 -32 -35 15 -49 30 -67 66 -38 80 -14 160
61 198 47 25 95 22 144 -7z m1175 -118 c0 -56 -4 -107 -8 -112 -4 -6 -19 -16
-34 -22 -22 -10 -28 -10 -29 0 0 6 -2 71 -3 144 l-3 132 38 -20 39 -19 0 -103z
m-6210 63 l0 -70 -70 0 -70 0 0 63 c0 35 3 67 7 70 3 4 35 7 70 7 l63 0 0 -70z
m148 -2 l3 -68 -71 0 -70 0 0 70 0 71 68 -3 67 -3 3 -67z m475 58 c76 -31 89
-117 31 -194 -11 -15 -82 -28 -108 -21 -26 8 -34 5 -61 -21 -53 -51 -79 -31
-28 22 25 27 26 30 14 64 -23 63 0 117 64 152 27 15 49 15 88 -2z m635 -89 l3
-98 -113 3 -113 3 -3 75 c-5 126 -10 121 116 118 l107 -3 3 -98z m462 82 c46
-26 70 -66 70 -116 l-1 -38 -24 28 -25 28 0 -35 c0 -39 0 -39 -24 -30 -18 7
-22 64 -5 81 7 7 6 12 -5 16 -13 5 -16 -3 -16 -53 l0 -60 -60 0 -60 0 0 60 0
60 58 0 57 0 -39 23 c-45 25 -55 43 -29 50 39 10 67 6 103 -14z m1657 2 c3
-14 15 -21 37 -23 l31 -3 3 -104 c4 -141 4 -141 -143 -141 -147 0 -147 0 -143
141 l3 104 31 3 c22 2 34 9 37 23 4 16 14 19 72 19 58 0 68 -3 72 -19z m-1207
-6 c8 -10 37 -15 98 -17 l87 -3 3 -112 3 -113 -25 0 c-21 0 -25 5 -28 33 l-3
32 -90 0 -90 0 -10 -32 c-7 -25 -15 -33 -32 -33 -23 0 -23 1 -23 123 0 68 3
127 7 130 13 13 90 7 103 -8z m-8257 -15 c35 -27 70 -121 57 -154 -8 -22 -15
-24 -111 -31 -100 -7 -103 -7 -122 16 -11 13 -26 23 -33 21 -18 -4 -18 9 1 34
8 10 15 30 15 43 0 13 15 38 34 57 30 30 41 34 84 34 34 0 57 -6 75 -20z
m10638 -60 c22 -73 -20 -149 -99 -180 -43 -17 -49 -8 -24 32 l21 34 -32 -4
c-76 -9 -117 79 -62 133 22 22 32 25 104 25 l80 0 12 -40z m5386 -14 c62 -59
40 -86 -69 -86 -68 0 -79 2 -88 21 -19 34 -4 63 42 86 50 25 71 21 115 -21z
m1495 29 c30 -33 38 -45 38 -55 0 -6 -6 -18 -12 -25 -7 -8 -19 -21 -26 -30
-15 -18 -112 -21 -143 -5 -26 15 -28 104 -1 119 27 16 128 13 144 -4z m-11466
-75 c33 0 34 -1 34 -42 0 -84 -5 -89 -74 -86 l-61 3 -3 54 c-4 74 1 85 39 77
18 -3 47 -6 65 -6z m144 4 l35 -6 -3 -64 -4 -64 -64 0 -64 0 0 70 0 70 33 0
c17 0 48 -3 67 -6z"/>
<path d="M5322 8101 c-22 -14 2 -81 46 -126 21 -22 41 -48 45 -58 3 -9 13 -17
22 -17 8 0 15 -4 15 -8 0 -5 11 -14 25 -20 29 -13 32 -6 8 20 -12 13 -16 33
-14 69 2 46 0 53 -30 80 -18 16 -36 29 -41 29 -4 0 -8 6 -8 14 0 23 -43 34
-68 17z"/>
<path d="M413 8091 c-35 -22 -63 -67 -63 -101 0 -55 65 -120 120 -120 38 0 88
36 107 75 15 32 16 40 3 77 -27 74 -106 107 -167 69z"/>
<path d="M10388 359 c-26 -19 -28 -26 -28 -90 0 -38 3 -69 6 -69 3 0 19 8 35
17 27 16 31 16 59 0 l30 -18 0 74 c0 68 -2 76 -25 91 -31 21 -44 20 -77 -5z"/>
<path d="M11442 387 c-39 -42 -46 -80 -23 -132 16 -36 29 -50 62 -64 73 -33
145 5 169 90 10 34 -20 103 -52 119 -19 10 -21 10 -10 -1 35 -37 -13 -139 -66
-139 -20 0 -22 4 -17 23 4 12 16 32 27 44 21 22 17 43 -7 43 -7 0 -15 -7 -19
-15 -6 -17 -42 -20 -51 -5 -3 5 -1 19 5 31 16 30 7 33 -18 6z"/>
<path d="M7113 395 c-41 -17 -60 -64 -43 -105 15 -37 37 -50 84 -50 25 0 40 7
55 26 56 72 -13 164 -96 129z"/>
<path d="M6103 6448 c-14 -15 -31 -24 -37 -21 -6 3 -8 3 -4 -2 8 -8 -28 -45
-44 -45 -4 0 -8 -9 -8 -20 0 -16 8 -11 44 24 24 25 58 52 76 61 45 23 60 8 56
-60 -2 -33 0 -53 6 -52 20 4 19 -22 0 -39 -11 -9 -18 -23 -15 -30 3 -9 -2 -14
-15 -14 -11 0 -27 -11 -36 -25 -24 -37 -19 -44 9 -10 20 25 26 27 34 16 6 -9
6 -22 0 -32 -5 -10 -9 -28 -9 -41 0 -21 2 -20 20 10 24 39 40 41 40 5 1 -24 2
-25 11 -10 5 9 19 17 31 17 15 0 18 3 10 13 -8 9 -4 12 14 13 21 2 23 -2 18
-25 -5 -24 -4 -24 7 -6 6 11 19 28 28 39 15 18 15 18 -9 12 -14 -4 -20 -4 -15
1 6 4 10 15 10 23 -2 29 25 49 57 43 27 -5 29 -4 20 13 -9 17 -7 19 24 18 19
-1 37 2 40 7 3 5 11 3 18 -3 11 -10 5 -22 -33 -62 -25 -28 -61 -63 -78 -80
-18 -16 -33 -33 -33 -38 0 -4 8 0 18 10 10 10 27 25 38 33 42 31 118 127 140
178 13 30 22 56 20 58 -2 2 -14 -19 -27 -46 -12 -28 -27 -51 -33 -51 -6 0 -5
5 2 12 14 14 16 32 3 23 -5 -3 -12 -1 -16 5 -3 5 -1 10 6 10 12 0 4 14 -9 16
-31 4 -69 19 -79 32 -11 13 -19 8 -58 -36 -26 -28 -64 -73 -86 -99 -38 -46
-64 -61 -64 -36 0 6 37 52 83 102 46 50 79 91 73 91 -6 0 -19 -9 -28 -20 -10
-11 -25 -20 -35 -20 -10 0 -18 -7 -18 -17 0 -23 -39 -63 -55 -56 -8 2 -11 11
-8 19 3 8 0 14 -6 14 -6 0 -11 5 -11 10 0 6 7 10 16 10 8 0 13 -4 10 -9 -3 -5
6 -8 20 -8 14 0 23 4 21 11 -3 6 -10 10 -16 9 -6 -2 -11 2 -11 7 0 6 -3 9 -7
9 -20 -3 -24 2 -14 15 10 12 8 17 -9 26 -11 6 -19 14 -16 18 2 4 -9 7 -25 7
-20 0 -39 -10 -56 -27z"/>
<path d="M0 6178 c0 -159 2 -188 15 -188 8 0 19 8 24 18 9 16 17 18 56 12 52
-8 98 -2 89 11 -3 5 4 9 15 9 12 0 21 -5 21 -11 0 -5 5 -7 10 -4 16 10 12 23
-7 28 -13 2 -9 8 17 19 26 12 30 17 15 17 -17 1 -17 3 -5 11 12 8 10 10 -8 10
-13 0 -20 4 -17 10 6 9 -8 14 -28 11 -5 -1 -6 3 -3 8 3 5 -20 35 -52 68 -31
32 -76 81 -99 108 l-42 50 -1 -187z"/>
<path d="M6413 6080 c-74 -59 -133 -134 -133 -167 0 -21 3 -23 23 -18 30 10
105 83 127 125 19 37 50 110 47 110 -1 -1 -30 -23 -64 -50z"/>
<path d="M4512 6014 c-16 -11 -34 -14 -55 -10 -25 5 -36 1 -50 -14 -22 -26
-31 -25 -62 7 -24 27 -25 27 -25 5 0 -12 -5 -22 -11 -22 -5 0 -30 -9 -53 -20
l-44 -19 -4 -68 c-3 -37 -1 -74 5 -80 17 -22 125 -9 192 23 49 24 61 34 63 57
3 21 9 27 27 27 18 0 31 11 50 43 43 74 25 112 -33 71z"/>
<path d="M5130 5990 c0 -5 -10 -10 -21 -10 -38 0 -101 -23 -107 -39 -3 -9 -11
-20 -18 -26 -10 -8 -10 -21 1 -64 19 -70 29 -82 68 -74 18 3 34 10 35 15 5 12
72 10 72 -2 0 -11 29 -14 31 -2 9 69 7 92 -19 149 -25 57 -42 79 -42 53z"/>
<path d="M0 5312 l0 -629 45 7 c62 9 75 -1 51 -42 -10 -18 -27 -42 -38 -54
-47 -52 -58 -93 -58 -212 l0 -114 24 6 c17 4 28 1 34 -10 7 -12 24 -17 61 -17
46 -1 51 -3 51 -24 0 -22 3 -23 85 -23 l85 0 0 -85 0 -85 90 0 91 0 -28 -35
c-18 -22 -37 -35 -53 -36 -21 -1 -22 -2 -5 -6 32 -8 45 -23 45 -54 0 -36 -24
-59 -60 -59 -27 0 -29 3 -32 48 l-3 47 -19 -55 c-10 -30 -25 -60 -33 -67 -10
-7 -12 -19 -8 -33 5 -16 2 -23 -14 -27 -29 -7 -28 -40 2 -39 19 1 22 -4 24
-39 1 -40 1 -40 -5 -6 -9 44 -29 51 -38 14 -11 -50 -12 -49 -13 10 -1 31 -5
57 -11 57 -5 0 -10 -4 -10 -8 0 -5 -10 -8 -21 -8 -32 1 -34 -19 -4 -32 36 -17
31 -56 -7 -60 -17 -2 -28 1 -28 9 0 7 -3 9 -6 6 -4 -4 1 -18 10 -31 15 -24 14
-28 -51 -138 -36 -62 -86 -146 -110 -187 l-43 -74 1 -161 c0 -156 1 -160 16
-126 106 232 205 415 328 607 36 56 44 62 83 69 34 5 46 12 54 33 l11 26 6
-25 c7 -24 10 -24 118 -28 72 -2 113 0 118 7 3 6 -1 11 -9 11 -11 0 -16 10
-16 34 0 19 -6 37 -12 39 -10 4 -10 6 0 6 6 1 12 6 12 12 0 8 -5 8 -15 -1 -8
-7 -15 -29 -15 -50 0 -34 -2 -37 -27 -36 -25 1 -28 5 -31 39 -2 20 -5 37 -7
37 -2 0 -15 -4 -29 -10 -33 -12 -35 -47 -3 -60 22 -10 22 -10 -3 -7 -21 2 -25
8 -28 39 -3 32 -32 78 -32 50 0 -6 6 -13 13 -15 10 -4 9 -6 0 -6 -17 -1 -17
-58 0 -64 7 -3 5 -6 -5 -6 -14 -1 -18 7 -18 34 0 28 -4 35 -20 35 -13 0 -22
-9 -26 -27 -10 -48 -12 -49 -13 -5 -1 23 2 41 7 41 22 -4 52 2 52 11 0 5 -7 7
-15 4 -22 -9 -19 5 10 42 27 35 45 41 145 48 l55 3 2 49 2 48 -21 -22 c-21
-21 -21 -22 -3 -42 10 -11 13 -20 8 -20 -6 0 -17 7 -24 16 -12 14 -14 14 -20
-3 -4 -10 -7 8 -7 42 1 34 3 45 5 27 4 -28 7 -31 19 -21 19 15 18 25 -5 48
-18 18 -18 19 6 50 20 25 32 31 64 31 l39 0 0 46 c0 54 6 61 155 204 71 68
122 106 173 133 41 20 79 37 85 37 15 1 77 57 77 70 0 5 6 10 12 10 7 0 3 7
-8 14 -27 19 -95 13 -137 -11 -18 -11 -58 -27 -89 -37 -32 -10 -68 -26 -81
-36 -27 -22 -46 -26 -70 -15 -22 9 -77 -13 -77 -31 0 -7 -9 -18 -20 -24 -19
-10 -20 -8 -20 65 0 68 2 75 20 75 11 0 20 5 20 11 0 7 17 10 45 7 25 -2 45 0
45 3 0 8 49 23 89 27 11 2 11 5 1 17 -7 8 -8 15 -3 15 6 0 9 61 7 155 l-3 155
32 1 c54 2 70 -2 127 -30 30 -15 67 -31 83 -35 15 -3 27 -11 27 -16 0 -6 7
-10 15 -10 8 0 15 -4 15 -8 0 -5 18 -16 40 -26 22 -10 46 -24 54 -32 8 -8 26
-15 39 -16 16 -1 23 -7 20 -15 -4 -9 4 -13 25 -13 16 0 46 -7 66 -15 20 -8 38
-15 41 -15 53 1 75 -2 71 -9 -7 -10 17 -21 45 -21 10 0 19 -4 19 -10 0 -5 9
-10 20 -10 12 0 33 -6 48 -14 15 -7 44 -16 65 -20 20 -4 37 -10 37 -14 0 -5
17 -9 37 -10 21 -2 45 -9 54 -17 8 -8 23 -15 33 -15 10 0 24 -7 32 -15 11 -10
36 -15 78 -15 80 0 133 10 114 21 -10 6 -9 12 7 24 15 12 17 18 7 22 -9 4 -10
8 -2 18 6 7 12 28 13 47 2 18 8 43 15 55 7 12 12 29 12 37 0 9 5 16 10 16 6 0
10 11 10 25 0 15 -6 25 -14 25 -8 0 -16 4 -18 8 -5 13 -74 62 -87 62 -15 0
-70 23 -123 51 -20 10 -46 19 -57 19 -11 0 -37 8 -57 18 -28 13 -38 14 -41 5
-3 -7 -15 -13 -28 -13 -13 0 -25 -6 -28 -12 -7 -23 -49 9 -94 72 -35 47 -43
66 -43 101 0 64 -39 141 -84 167 -30 18 -35 25 -27 39 7 13 5 23 -7 36 -9 10
-28 42 -42 70 -20 43 -29 52 -48 50 -30 -4 -62 13 -62 32 0 9 -9 15 -23 15
-17 0 -33 18 -70 78 -55 88 -60 96 -78 135 -23 50 -58 77 -99 77 -46 0 -58
-27 -29 -62 11 -12 33 -45 49 -73 16 -28 40 -61 54 -74 14 -13 23 -28 20 -33
-3 -5 1 -17 9 -26 20 -22 6 -42 -50 -70 -22 -12 -43 -26 -45 -32 -5 -15 -58
27 -58 45 0 8 -18 19 -40 25 -22 6 -40 15 -40 20 0 13 -87 13 -95 0 -4 -6 -15
-8 -26 -5 -11 4 -19 2 -19 -4 0 -19 -29 -12 -40 9 -6 11 -19 20 -28 20 -10 0
-22 4 -28 9 -5 5 -43 11 -85 13 -55 2 -80 8 -93 21 -20 20 -33 22 -38 5 -3 -7
-11 2 -18 19 -11 25 -17 29 -31 20 -9 -5 -15 -17 -13 -26 2 -9 6 -33 9 -54 5
-31 10 -38 27 -35 16 2 24 -6 35 -37 14 -39 13 -40 -15 -65 -16 -14 -31 -37
-34 -52 -5 -26 -3 -28 27 -28 18 0 38 7 45 15 7 8 20 15 29 15 9 0 22 5 28 11
8 8 15 -3 27 -37 30 -89 41 -84 -174 -84 -120 0 -190 -4 -190 -10 0 -6 -35
-10 -85 -10 l-85 0 0 85 0 85 44 0 c40 0 45 3 57 33 l13 32 3 -32 c4 -27 9
-33 28 -33 20 0 24 -6 27 -37 3 -37 4 -38 55 -47 47 -8 149 2 112 11 -9 2 -21
15 -27 28 -8 18 -20 25 -39 25 -16 0 -48 9 -72 20 -37 17 -42 23 -37 43 4 12
9 34 12 49 6 24 10 26 35 21 l29 -5 0 55 c0 31 -5 59 -11 62 -6 4 -8 22 -4 45
6 33 3 40 -15 50 -11 6 -18 15 -15 21 4 5 3 9 0 9 -3 0 -49 5 -103 11 l-96 11
-50 49 c-27 27 -52 49 -55 49 -3 0 -11 10 -16 22 -6 13 -18 24 -27 26 -17 3
-18 -32 -18 -626z m388 -553 c-3 -22 0 -33 11 -38 47 -20 91 -55 91 -72 0 -18
-9 -19 -125 -19 -69 0 -125 4 -125 9 0 13 130 151 142 151 6 0 8 -14 6 -31z
m-218 -333 c0 -109 -1 -115 -20 -113 -11 1 -20 7 -20 14 0 8 -7 6 -20 -7 -22
-22 -60 -27 -60 -7 0 31 23 85 65 153 26 41 48 74 51 74 2 0 4 -51 4 -114z
m425 -166 c-53 -53 -72 -67 -82 -58 -21 17 -16 30 34 80 l47 48 -47 48 c-50
51 -54 61 -35 80 10 10 27 -3 83 -58 l70 -70 -70 -70z m-112 142 c31 -32 57
-62 57 -67 0 -12 -118 -135 -128 -135 -4 0 -37 29 -72 65 l-64 65 64 65 c35
36 69 65 75 65 6 0 36 -26 68 -58z"/>
<path d="M5504 5858 c-11 -13 -28 -36 -38 -51 -14 -23 -20 -26 -32 -16 -8 6
-14 18 -14 25 0 17 -22 18 -37 3 -7 -7 -29 -15 -50 -19 -21 -3 -37 -11 -35
-18 1 -7 -2 -12 -8 -12 -6 0 -10 -6 -10 -14 0 -19 38 -46 65 -46 11 0 25 -8
32 -18 8 -14 20 -18 42 -14 19 2 31 0 31 -7 0 -6 6 -11 14 -11 8 0 37 -22 66
-50 29 -27 56 -50 61 -50 5 0 9 -4 9 -10 0 -5 7 -10 15 -10 8 0 15 -5 15 -10
0 -6 11 -15 25 -22 13 -6 22 -15 19 -19 -3 -5 0 -9 5 -9 6 0 11 -6 11 -14 0
-8 20 -24 45 -36 25 -12 45 -25 45 -30 0 -11 64 -48 95 -56 14 -3 25 -10 25
-15 0 -12 41 -5 72 12 12 7 26 13 30 14 22 1 11 20 -48 84 -37 39 -79 88 -93
108 -36 51 -313 333 -326 333 -6 0 -20 -10 -31 -22z"/>
<path d="M2406 4962 c-3 -5 -12 -29 -21 -54 -17 -51 -11 -78 24 -115 12 -13
16 -23 10 -23 -19 0 53 -68 78 -75 13 -3 23 -9 23 -13 0 -4 12 -7 28 -7 15 1
43 -5 63 -13 l37 -13 47 50 c25 27 71 66 101 87 30 20 52 39 50 41 -6 6 -63
-24 -71 -37 -10 -17 -30 -11 -40 12 -6 12 -16 24 -24 26 -8 3 -11 0 -7 -7 4
-7 0 -11 -11 -11 -10 0 -23 8 -30 19 -8 13 -19 17 -39 13 -23 -4 -35 5 -89 62
-51 54 -68 66 -93 66 -17 0 -33 -4 -36 -8z"/>
<path d="M979 3006 c-3 -3 -39 -10 -80 -16 -53 -7 -99 -22 -155 -50 -43 -22
-92 -40 -108 -40 -16 0 -91 -31 -169 -70 -77 -38 -152 -70 -166 -70 -15 0 -31
-4 -37 -9 -5 -5 -25 -11 -44 -13 -26 -2 -36 -8 -40 -26 -3 -12 -24 -35 -46
-50 -23 -15 -62 -46 -88 -70 l-46 -42 0 -170 c0 -130 3 -170 13 -170 6 0 46
28 87 61 149 121 151 122 264 127 78 3 104 8 114 21 12 15 14 15 22 0 8 -13
30 -16 119 -18 67 -1 112 2 116 9 3 5 -1 10 -9 10 -11 0 -16 10 -16 34 0 19
-6 37 -12 39 -10 4 -10 6 0 6 6 1 12 6 12 12 0 8 -5 8 -15 -1 -8 -7 -15 -29
-15 -50 0 -34 -2 -37 -27 -36 -25 1 -28 5 -31 39 -2 20 -5 37 -7 37 -2 0 -15
-4 -29 -10 -33 -12 -35 -47 -3 -60 22 -10 22 -10 -3 -7 -21 2 -25 8 -28 39 -3
32 -32 78 -32 50 0 -6 6 -13 13 -15 10 -4 10 -6 0 -6 -17 -1 -17 -58 0 -64 7
-3 5 -6 -5 -6 -14 -1 -18 7 -18 34 0 28 -4 35 -20 35 -13 0 -22 -9 -26 -27
-10 -48 -12 -49 -13 -7 -1 36 -4 43 -27 48 -33 9 -22 23 43 58 31 17 73 28
118 32 38 4 73 12 77 19 13 21 9 75 -8 91 -8 9 -12 20 -9 26 11 18 51 10 73
-15 27 -31 50 -31 137 0 139 51 224 68 305 61 77 -7 162 -24 260 -52 65 -19
244 -110 304 -154 22 -17 56 -41 75 -53 19 -12 42 -35 51 -51 9 -17 27 -33 41
-36 21 -6 41 -6 112 -1 4 1 7 7 7 13 0 19 -178 186 -269 253 -46 33 -124 91
-174 128 -111 82 -207 130 -313 157 -77 20 -263 38 -275 26z"/>
<path d="M6650 2582 c0 -12 -4 -22 -10 -22 -5 0 -10 -7 -10 -15 0 -9 -6 -18
-14 -21 -8 -3 -33 -64 -56 -137 -23 -73 -57 -180 -76 -238 -19 -58 -34 -112
-34 -119 0 -29 32 16 81 114 28 55 57 108 64 116 7 8 16 40 20 70 4 30 16 102
27 159 10 57 17 106 14 109 -3 3 -6 -4 -6 -16z"/>
<path d="M1091 2486 c-15 -18 -8 -25 79 -74 90 -52 91 -72 8 -102 -148 -53
-344 -188 -315 -217 3 -2 26 3 51 11 60 21 69 20 91 -4 16 -17 16 -24 5 -44
-15 -29 -7 -56 17 -57 55 -4 84 11 65 34 -10 11 3 26 66 76 42 34 105 75 140
93 88 44 141 47 241 13 104 -34 115 -31 95 29 -21 61 -6 89 46 88 3 0 19 -3
37 -7 27 -5 37 -1 72 30 22 20 38 42 35 48 -5 14 -86 67 -102 67 -6 0 -32 -18
-57 -40 -33 -28 -53 -39 -68 -35 -12 2 -62 12 -112 21 -49 9 -129 31 -177 50
-97 38 -195 47 -217 20z"/>
<path d="M2280 2383 c-64 -23 -89 -24 -168 -7 l-33 7 2 -46 c3 -50 -15 -85
-63 -125 -49 -41 -87 -137 -73 -182 5 -15 15 -20 43 -20 29 0 52 11 108 54 81
62 115 81 164 90 25 5 50 23 87 63 50 53 53 60 53 109 0 79 -27 92 -120 57z"/>
<path d="M6301 2287 c-28 -28 1 -133 33 -121 11 4 17 -10 26 -53 12 -57 33
-103 48 -103 16 0 33 44 53 136 11 53 18 98 15 102 -3 3 -6 -1 -6 -9 0 -23
-37 -49 -69 -49 -26 0 -31 5 -46 49 -17 51 -35 67 -54 48z"/>
</g>
</svg>
